<svg xmlns="http://www.w3.org/2000/svg" width="1200" height="300" viewBox="0 0 1200 300" role="img" aria-labelledby="title desc"><title id="title">CacheCraft</title><desc id="desc">Cache architecture experiment toolkit</desc><defs><linearGradient id="g" x1="0" y1="0" x2="1" y2="1"><stop stop-color="#111827"/><stop offset=".55" stop-color="#312e81"/><stop offset="1" stop-color="#7c3aed"/></linearGradient></defs><rect width="1200" height="300" rx="28" fill="url(#g)"/><g transform="translate(72 62)"><g fill="none" stroke="#c4b5fd" stroke-width="4"><rect x="0" y="0" width="98" height="98" rx="20"/><rect x="17" y="18" width="27" height="27" rx="4"/><rect x="54" y="18" width="27" height="27" rx="4"/><rect x="17" y="55" width="27" height="27" rx="4"/><rect x="54" y="55" width="27" height="27" rx="4"/></g><text x="128" y="50" font-family="Inter,Segoe UI,sans-serif" font-size="50" font-weight="760" fill="#fff">CacheCraft</text><text x="128" y="84" font-family="Inter,Segoe UI,sans-serif" font-size="18" fill="#ddd6fe">memory systems · workload analysis · policy sweeps · Pareto trade-offs</text></g><g transform="translate(760 58)" fill="none" stroke="#c4b5fd"><path d="M0 176h370" opacity=".25"/><path d="M0 132h370" opacity=".18"/><path d="M0 88h370" opacity=".18"/><path d="M12 162 C80 150,110 82,170 105 S260 62,350 40" stroke-width="4"/><circle cx="170" cy="105" r="6" fill="#c4b5fd"/><circle cx="350" cy="40" r="6" fill="#c4b5fd"/></g></svg>
